<svg width="1000" height="600" xmlns="http://www.w3.org/2000/svg">
 <!-- Created with Method Draw - http://github.com/duopixel/Method-Draw/ -->

 <g id="Layer_1">
  <title>Layer 1</title>
  <g stroke="null" id="svg_6">
   <rect stroke="null" x="3492.90526" y="1734.47189" transform="matrix(0.19919375667451245,0,0,0.1928445535423653,-529.5108934282325,-169.2294761658177) " id="svg_4" fill="#f7df1e" height="630" width="630"/>
   <path stroke="null" id="svg_5" d="m250.55282,260.17014c2.52777,3.99574 5.81646,6.93276 11.63292,6.93276c4.88622,0 8.00759,-2.36427 8.00759,-5.63106c0,-3.91474 -3.20702,-5.3013 -8.58525,-7.57879l-2.94807,-1.22456c-8.50956,-3.50977 -14.16268,-7.90663 -14.16268,-17.20173c0,-8.5623 6.73872,-15.08044 17.2701,-15.08044c7.49765,0 12.88784,2.52626 16.77211,9.14083l-9.18283,5.7082c-2.02182,-3.50977 -4.20299,-4.89247 -7.58928,-4.89247c-3.45402,0 -5.64316,2.12129 -5.64316,4.89247c0,3.42492 2.19113,4.81147 7.25065,6.93276l2.94807,1.22263c10.01945,4.15966 15.67655,8.40031 15.67655,17.93454c0,10.27861 -8.34024,15.90968 -19.54091,15.90968c-10.95167,0 -18.02703,-5.05253 -21.48902,-11.67481l9.58321,-5.39001zm-41.65739,0.98929c1.8525,3.18194 3.53768,5.87212 7.58928,5.87212c3.87432,0 6.31843,-1.46755 6.31843,-7.17382l0,-38.81961l11.79227,0l0,38.97388c0,11.82137 -7.15902,17.20173 -17.60873,17.20173c-9.44178,0 -14.90965,-4.73048 -17.6904,-10.42807l9.59915,-5.62624z"/>
  </g>
  <!-- Block -->
  <!-- Letters -->
  <g stroke="null" id="svg_12">
   <path stroke="null" id="svg_10" fill="#654ff0" d="m776.24044,171.32025c0,0.23358 0,0.46715 0,0.7137c0,8.38277 -7.51408,15.17593 -16.78112,15.17593c-9.26943,0 -16.78112,-6.79532 -16.78112,-15.17593l0,0c0,-0.24655 0,-0.48013 0,-0.7137l-56.35796,0l0,132.3595l146.35946,0l0,-132.3595l-56.43927,0z"/>
   <path stroke="null" id="svg_11" fill="#fff" d="m720.31774,242.64948l9.6999,0l6.62205,31.89388l0.11957,0l7.95889,-31.89388l9.07333,0l7.18883,32.28534l0.1411,0l7.54756,-32.28534l9.51336,0l-12.36163,46.86435l-9.62576,0l-7.12904,-31.89388l-0.18654,0l-7.63126,31.89388l-9.80513,0l-11.12523,-46.86435zm68.8009,0l15.29122,0l15.18599,46.86435l-10.00601,0l-3.30265,-10.42872l-17.41965,0l-2.54933,10.42872l-9.74534,0l12.54578,-46.86435zm5.8209,11.55118l-4.23055,17.19376l13.16757,0l-4.85713,-17.19376l-4.07989,0z"/>
  </g>
  <rect id="svg_13" height="55" width="41" y="372" x="497.5" opacity="undefined" stroke-dasharray="null" stroke-width="5" stroke="#0000ff" fill="#ffffff"/>
  <rect id="svg_14" height="55" width="41" y="372" x="537.5" opacity="undefined" stroke-dasharray="null" stroke-width="5" stroke="#0000ff" fill="#ffffff"/>
  <rect id="svg_15" height="55" width="41" y="372" x="579.5" opacity="undefined" stroke-dasharray="null" stroke-width="5" stroke="#0000ff" fill="#ffffff"/>
  <rect id="svg_16" height="55" width="41" y="372" x="620.5" opacity="undefined" stroke-dasharray="null" stroke-width="5" stroke="#0000ff" fill="#ffffff"/>
  <rect id="svg_17" height="55" width="41" y="372" x="660.5" opacity="undefined" stroke-dasharray="null" stroke-width="5" stroke="#0000ff" fill="#ffffff"/>
  <rect id="svg_18" height="55" width="41" y="372" x="702.5" opacity="undefined" stroke-dasharray="null" stroke-width="5" stroke="#0000ff" fill="#ffffff"/>
  <rect id="svg_19" height="55" width="41" y="372" x="252.5" opacity="undefined" stroke-dasharray="null" stroke-width="5" stroke="#0000ff" fill="#ffffff"/>
  <rect id="svg_20" height="55" width="41" y="372" x="292.5" opacity="undefined" stroke-dasharray="null" stroke-width="5" stroke="#0000ff" fill="#ffffff"/>
  <rect id="svg_21" height="55" width="41" y="372" x="334.5" opacity="undefined" stroke-dasharray="null" stroke-width="5" stroke="#0000ff" fill="#ffffff"/>
  <rect id="svg_22" height="55" width="41" y="372" x="375.5" opacity="undefined" stroke-dasharray="null" stroke-width="5" stroke="#0000ff" fill="#ffffff"/>
  <rect id="svg_23" height="55" width="41" y="372" x="415.5" opacity="undefined" stroke-dasharray="null" stroke-width="5" stroke="#0000ff" fill="#ffffff"/>
  <rect id="svg_24" height="55" width="41" y="372" x="457.5" opacity="undefined" stroke-dasharray="null" stroke-width="5" stroke="#0000ff" fill="#ffffff"/>
  <text stroke="#000000" transform="matrix(1.6223390102386475,0,0,1.615384578704834,-202.57134783267975,-284.6153676509857) " font-style="normal" font-weight="normal" xml:space="preserve" text-anchor="start" font-family="monospace" font-size="25" id="svg_26" y="472.42857" x="352.00494" stroke-dasharray="null" fill="#000000">Shared Memory</text>
 </g>
</svg>